<svg width="1134" height="567" viewBox="0 0 1134 567" fill="none" xmlns="http://www.w3.org/2000/svg">
<path fill-rule="evenodd" clip-rule="evenodd" d="M344.075 134.481C344.075 60.3273 283.747 0 209.594 0H180.517C106.363 0 46.036 60.3273 46.036 134.481V240.219C17.3444 274.188 0 318.043 0 365.882C0 473.438 87.507 560.937 195.055 560.937C302.604 560.937 390.111 473.438 390.111 365.882C390.111 318.036 372.766 274.188 344.075 240.219V134.481ZM272.073 362.248C271.208 343.682 263.815 326.861 252.09 313.987L299.398 266.679C323.219 291.729 338.114 325.254 339.037 362.248H272.073ZM51.0663 362.248C51.9968 325.247 66.8842 291.721 90.7127 266.672L138.021 313.98C126.303 326.854 118.903 343.675 118.038 362.24H51.0663V362.248ZM294.266 261.54L246.958 308.848C234.084 297.13 217.263 289.737 198.697 288.865V221.893C235.69 222.824 269.216 237.718 294.266 261.54ZM191.421 288.872C172.855 289.737 156.034 297.13 143.16 308.848L95.8521 261.54C120.902 237.718 154.428 222.824 191.421 221.901V288.872ZM143.167 422.917C156.041 434.635 172.862 442.027 191.428 442.892V509.864C154.435 508.933 120.902 494.046 95.8593 470.225L143.167 422.917ZM198.69 442.9C217.256 442.035 234.077 434.642 246.95 422.917L294.258 470.225C269.209 494.053 235.683 508.941 198.69 509.871V442.9ZM180.517 50.8846H209.594C255.688 50.8846 293.19 88.3866 293.19 134.481V197.418C264.338 180.546 230.82 170.827 195.055 170.827C159.291 170.827 125.772 180.546 96.9207 197.418V134.481C96.9207 88.3866 134.423 50.8846 180.517 50.8846ZM51.0663 369.517H118.045C118.91 388.082 126.303 404.903 138.028 417.777L90.72 465.085C66.8915 440.043 51.9968 406.517 51.0663 369.517ZM299.405 465.085L252.097 417.777C263.815 404.903 271.208 388.082 272.073 369.517H339.044C338.114 406.517 323.226 440.043 299.405 465.085Z" fill="#A9BBDD"/>
<path fill-rule="evenodd" clip-rule="evenodd" d="M702.048 361.463C728.632 341.051 741.927 312.504 741.927 275.838C741.927 250.643 734.018 230.616 718.208 215.758C702.39 200.9 679.107 191.559 648.351 187.735V186.172C674.418 179.914 694.648 168.45 709.078 151.767C723.507 135.084 730.718 114.847 730.718 91.04C730.718 62.5446 719.291 40.3008 696.444 24.3157C673.589 8.33069 642.441 0.334534 602.998 0.334534C554.868 0.334534 513.419 12.8449 478.672 37.8728L515.949 93.388C531.759 83.1311 546.138 75.9273 559.084 71.7547C572.024 67.5822 584.759 65.4959 597.27 65.4959C633.405 65.4959 651.484 79.9253 651.484 108.762C651.484 127.532 644.665 140.783 631.021 148.511C617.376 156.245 595.787 160.112 566.252 160.112H536.797V221.886H565.728C597.706 221.886 620.989 225.623 635.586 233.095C650.182 240.568 657.481 253.253 657.481 271.15C657.481 291.133 651.142 305.642 638.457 314.678C625.765 323.714 606.138 328.235 579.555 328.235C562.166 328.235 544.626 325.887 526.896 321.198C509.174 316.502 492.927 310.425 478.156 302.953V371.501C510.133 385.233 546.792 392.095 588.147 392.095C637.498 392.088 675.458 381.882 702.048 361.463Z" fill="#A9BBDD"/>
<path fill-rule="evenodd" clip-rule="evenodd" d="M1126.64 192.693C1126.64 133.783 1109.44 87.9141 1075.03 55.0717C1040.63 22.2294 992.322 5.80817 930.112 5.80817H810.475V386.876H918.387C985.809 386.876 1037.38 370.193 1073.08 336.834C1108.79 303.469 1126.64 255.426 1126.64 192.693ZM925.947 320.152H891.28V72.0091H934.292C1006.57 72.0091 1042.72 112.935 1042.72 194.779C1042.72 278.361 1003.79 320.152 925.947 320.152Z" fill="#A9BBDD"/>
<path fill-rule="evenodd" clip-rule="evenodd" d="M519.83 485.788C510.613 481.39 504.768 478.344 502.304 476.643C499.84 474.942 498.037 473.198 496.91 471.38C495.783 469.57 495.216 467.44 495.216 465.005C495.216 461.08 496.612 457.896 499.411 455.461C502.202 453.026 506.222 451.804 511.449 451.804C515.847 451.804 520.324 452.371 524.875 453.498C529.425 454.625 535.175 456.617 542.132 459.473L551.051 437.978C544.335 435.063 537.894 432.803 531.744 431.203C525.587 429.597 519.125 428.797 512.343 428.797C498.546 428.797 487.744 432.097 479.922 438.698C472.1 445.298 468.189 454.363 468.189 465.899C468.189 472.027 469.382 477.378 471.759 481.957C474.136 486.537 477.32 490.549 481.303 493.995C485.287 497.441 491.262 501.039 499.229 504.79C507.734 508.831 513.368 511.775 516.13 513.622C518.892 515.468 520.993 517.38 522.418 519.372C523.843 521.364 524.555 523.639 524.555 526.198C524.555 530.777 522.934 534.223 519.692 536.542C516.45 538.861 511.798 540.024 505.735 540.024C500.683 540.024 495.107 539.224 489.009 537.618C482.917 536.011 475.466 533.249 466.663 529.323V555.013C477.363 560.247 489.677 562.864 503.591 562.864C518.696 562.864 530.479 559.476 538.955 552.694C547.431 545.919 551.662 536.636 551.662 524.867C551.662 516.362 549.401 509.188 544.887 503.329C540.373 497.462 532.021 491.618 519.83 485.788Z" fill="#A9BBDD"/>
<path fill-rule="evenodd" clip-rule="evenodd" d="M575.309 561.068H650.407V538.235H602.961V504.608H647.107V481.957H602.961V453.324H650.407V430.673H575.309V561.068Z" fill="#A9BBDD"/>
<path fill-rule="evenodd" clip-rule="evenodd" d="M733 451.812C737.754 451.812 742.602 452.677 747.538 454.399C752.474 456.122 757.381 458.143 762.258 460.462L771.178 437.986C758.391 431.858 745.67 428.797 733 428.797C720.569 428.797 709.738 431.516 700.492 436.961C691.245 442.405 684.158 450.22 679.222 460.418C674.286 470.617 671.822 482.495 671.822 496.052C671.822 517.576 676.845 534.092 686.898 545.599C696.944 557.106 711.454 562.856 730.426 562.856C743.627 562.856 755.578 560.625 766.278 556.169V532.98C753.259 537.559 742.166 539.849 733.007 539.849C711.185 539.849 700.274 525.311 700.274 496.234C700.274 482.262 703.13 471.366 708.837 463.544C714.536 455.715 722.597 451.812 733 451.812Z" fill="#A9BBDD"/>
<path fill-rule="evenodd" clip-rule="evenodd" d="M872.584 510.322C872.584 520.433 870.548 527.848 866.478 532.573C862.407 537.298 855.85 539.66 846.807 539.66C837.473 539.66 830.778 537.312 826.737 532.616C822.695 527.92 820.674 520.542 820.674 510.496V430.673H793.116V514.69C793.116 529.614 797.754 541.376 807.03 549.968C816.305 558.56 829.324 562.856 846.095 562.856C857.217 562.856 866.848 560.923 874.99 557.056C883.131 553.188 889.361 547.627 893.672 540.38C897.982 533.125 900.141 524.686 900.141 515.047V430.673H872.584V510.322Z" fill="#A9BBDD"/>
<path fill-rule="evenodd" clip-rule="evenodd" d="M1015.83 490.208C1020.05 484.232 1022.16 477.407 1022.16 469.738C1022.16 456.595 1017.91 446.803 1009.4 440.348C1000.9 433.893 987.794 430.673 970.071 430.673H932.075V561.075H959.727V511.041H974.447L1005.57 561.075H1036.26C1030.31 552.512 1017.52 533.576 997.905 504.259C1005.63 500.864 1011.61 496.183 1015.83 490.208ZM988.004 484.182C983.839 487.096 977.391 488.55 968.646 488.55H959.727V453.316H968.108C977.028 453.316 983.614 454.625 987.866 457.242C992.119 459.859 994.241 464.257 994.241 470.443C994.249 476.694 992.162 481.274 988.004 484.182Z" fill="#A9BBDD"/>
<path fill-rule="evenodd" clip-rule="evenodd" d="M1127.77 453.324V430.673H1052.66V561.068H1127.77V538.235H1080.32V504.608H1124.47V481.957H1080.32V453.324H1127.77Z" fill="#A9BBDD"/>
</svg>
